<?xml version="1.0" encoding="UTF-8"?>
<!DOCTYPE svg PUBLIC "-//W3C//DTD SVG 1.1//EN" "http://www.w3.org/Graphics/SVG/1.1/DTD/svg11.dtd">
<svg xmlns="http://www.w3.org/2000/svg" version="1.1" width="408px" height="426px" style="shape-rendering:geometricPrecision; text-rendering:geometricPrecision; image-rendering:optimizeQuality; fill-rule:evenodd; clip-rule:evenodd" xmlns:xlink="http://www.w3.org/1999/xlink">
<g><path style="opacity:0.998" fill="#10a5bc" d="M 36.5,-0.5 C 89.5,-0.5 142.5,-0.5 195.5,-0.5C 196.758,1.68686 197.758,4.0202 198.5,6.5C 196.393,7.46822 194.059,7.80155 191.5,7.5C 181.505,6.30041 171.505,6.30041 161.5,7.5C 166.77,12.7484 170.77,18.7484 173.5,25.5C 131.277,32.5519 99.6104,54.7186 78.5,92C 74.9668,92.2432 71.6335,91.7432 68.5,90.5C 60.2949,89.1986 51.9615,89.3653 43.5,91C 42.944,91.3826 42.6107,91.8826 42.5,92.5C 24.1673,97.9943 11.334,109.661 4,127.5C 2.56378,131.98 1.06378,136.313 -0.5,140.5C -0.5,105.833 -0.5,71.1667 -0.5,36.5C 4.83333,17.1667 17.1667,4.83333 36.5,-0.5 Z"/></g>
<g><path style="opacity:0.998" fill="#14a5bc" d="M 202.5,-0.5 C 258.5,-0.5 314.5,-0.5 370.5,-0.5C 389.833,4.83333 402.167,17.1667 407.5,36.5C 407.5,66.8333 407.5,97.1667 407.5,127.5C 398.494,110.824 385.161,99.1571 367.5,92.5C 363.797,90.945 359.797,90.2783 355.5,90.5C 352.314,90.502 349.314,90.8353 346.5,91.5C 341.077,91.6911 335.743,92.1911 330.5,93C 312.235,62.2427 286.235,40.7427 252.5,28.5C 250.908,23.9613 249.241,19.4613 247.5,15C 245.305,13.627 242.971,13.2937 240.5,14C 237.221,14.9728 234.221,16.4728 231.5,18.5C 224.69,13.5245 218.024,8.35784 211.5,3C 208.338,1.97252 205.338,0.805856 202.5,-0.5 Z"/></g>
<g><path style="opacity:0.999" fill="#040403" d="M 195.5,-0.5 C 197.833,-0.5 200.167,-0.5 202.5,-0.5C 205.338,0.805856 208.338,1.97252 211.5,3C 218.024,8.35784 224.69,13.5245 231.5,18.5C 234.221,16.4728 237.221,14.9728 240.5,14C 242.971,13.2937 245.305,13.627 247.5,15C 249.241,19.4613 250.908,23.9613 252.5,28.5C 286.235,40.7427 312.235,62.2427 330.5,93C 335.743,92.1911 341.077,91.6911 346.5,91.5C 353.535,91.3257 360.535,91.6591 367.5,92.5C 385.161,99.1571 398.494,110.824 407.5,127.5C 407.5,145.167 407.5,162.833 407.5,180.5C 397.134,202.195 380.134,215.528 356.5,220.5C 351.868,221.328 347.202,221.828 342.5,222C 336.824,235.349 329.824,248.016 321.5,260C 343.888,272.36 364.054,287.86 382,306.5C 392.599,320.371 401.099,335.371 407.5,351.5C 407.5,363.833 407.5,376.167 407.5,388.5C 405.506,397.488 401.173,405.154 394.5,411.5C 400.36,365.422 385.36,327.922 349.5,299C 335.273,287.394 319.606,278.727 302.5,273C 284.056,296.057 260.39,310.724 231.5,317C 180.414,326.752 138.08,312.085 104.5,273C 66.9397,285.235 39.1064,309.069 21,344.5C 17.8601,351.92 15.5268,359.586 14,367.5C 13.5001,382.496 13.3334,397.496 13.5,412.5C 6.52946,406.224 1.8628,398.557 -0.5,389.5C -0.5,376.833 -0.5,364.167 -0.5,351.5C 16.3025,309.213 45.6358,279.213 87.5,261.5C 87.6495,260.448 87.4828,259.448 87,258.5C 77.7548,248.017 71.0881,236.017 67,222.5C 62.9341,221.536 58.7675,221.203 54.5,221.5C 52.0948,220.232 49.4282,219.565 46.5,219.5C 29.8049,214.527 17.3049,204.194 9,188.5C 5.31626,180.924 2.14959,173.257 -0.5,165.5C -0.5,157.167 -0.5,148.833 -0.5,140.5C 1.06378,136.313 2.56378,131.98 4,127.5C 11.334,109.661 24.1673,97.9943 42.5,92.5C 51.0664,90.8584 59.733,90.1917 68.5,90.5C 71.6335,91.7432 74.9668,92.2432 78.5,92C 99.6104,54.7186 131.277,32.5519 173.5,25.5C 170.77,18.7484 166.77,12.7484 161.5,7.5C 171.505,6.30041 181.505,6.30041 191.5,7.5C 194.024,8.80034 196.691,8.80034 199.5,7.5C 199.376,6.89333 199.043,6.55999 198.5,6.5C 197.758,4.0202 196.758,1.68686 195.5,-0.5 Z"/></g>
<g><path style="opacity:1" fill="#084e59" d="M 198.5,6.5 C 199.043,6.55999 199.376,6.89333 199.5,7.5C 196.691,8.80034 194.024,8.80034 191.5,7.5C 194.059,7.80155 196.393,7.46822 198.5,6.5 Z"/></g>
<g><path style="opacity:1" fill="#682a03" d="M 208.5,22.5 C 211.056,23.5434 213.223,25.2101 215,27.5C 216.833,30 218.667,32.5 220.5,35C 222.167,35.6667 223.833,35.6667 225.5,35C 228.341,33.4136 231.007,31.5803 233.5,29.5C 234.655,33.4266 235.488,37.4266 236,41.5C 294.192,58.2045 324.692,96.8711 327.5,157.5C 328.136,171.46 324.803,184.293 317.5,196C 319.653,198.822 321.819,201.656 324,204.5C 325.404,206.639 326.237,208.972 326.5,211.5C 323.952,222.705 319.452,233.039 313,242.5C 312.333,243.833 311.667,243.833 311,242.5C 309.228,233.294 305.562,224.961 300,217.5C 294.029,212.119 287.863,207.119 281.5,202.5C 287.216,195.607 292.382,188.274 297,180.5C 302.708,167.307 304.041,153.64 301,139.5C 291.903,116.856 275.07,105.523 250.5,105.5C 242.319,106.378 234.319,108.211 226.5,111C 218.988,116.257 211.654,121.757 204.5,127.5C 187.481,110.716 167.148,103.716 143.5,106.5C 113.841,116.806 102.007,137.473 108,168.5C 112.025,181.172 118.525,192.339 127.5,202C 122.864,205.323 118.197,208.657 113.5,212C 104.371,220.692 99.0375,231.359 97.5,244C 97.1667,244.833 96.8333,245.667 96.5,246.5C 89.3083,236.118 84.3083,224.785 81.5,212.5C 81.466,209.567 82.2993,206.9 84,204.5C 86.7671,202.242 88.9338,199.575 90.5,196.5C 78.6942,166.896 78.5276,137.23 90,107.5C 110.264,65.4157 143.764,43.0824 190.5,40.5C 190.929,34.9295 190.262,29.5962 188.5,24.5C 189.873,24.3433 191.207,24.51 192.5,25C 196.01,27.1824 199.51,29.349 203,31.5C 206.232,29.4182 208.066,26.4182 208.5,22.5 Z"/></g>
<g><path style="opacity:1" fill="#0b6371" d="M 68.5,90.5 C 59.733,90.1917 51.0664,90.8584 42.5,92.5C 42.6107,91.8826 42.944,91.3826 43.5,91C 51.9615,89.3653 60.2949,89.1986 68.5,90.5 Z"/></g>
<g><path style="opacity:1" fill="#095763" d="M 346.5,91.5 C 349.314,90.8353 352.314,90.502 355.5,90.5C 359.797,90.2783 363.797,90.945 367.5,92.5C 360.535,91.6591 353.535,91.3257 346.5,91.5 Z"/></g>
<g><path style="opacity:1" fill="#685d4e" d="M 50.5,108.5 C 55.6503,107.349 60.9836,107.183 66.5,108C 67.4158,108.278 68.0825,108.778 68.5,109.5C 62.5362,108.693 56.5362,108.36 50.5,108.5 Z"/></g>
<g><path style="opacity:1" fill="#eed5b3" d="M 50.5,108.5 C 56.5362,108.36 62.5362,108.693 68.5,109.5C 71.5904,108.83 73.257,109.997 73.5,113C 72.2382,117.883 70.9049,122.717 69.5,127.5C 63.0073,126.45 56.6739,126.45 50.5,127.5C 40.0869,130.956 35.0869,138.289 35.5,149.5C 35.7232,160.104 39.3899,169.27 46.5,177C 48.4048,178.421 50.4048,179.588 52.5,180.5C 52.9731,181.906 53.9731,182.573 55.5,182.5C 60.5819,184.396 65.7486,186.063 71,187.5C 71.0232,193.056 70.5232,198.556 69.5,204C 50.0015,205.668 35.1682,198.168 25,181.5C 14.2463,162.869 13.913,144.203 24,125.5C 30.4042,115.908 39.2376,110.242 50.5,108.5 Z"/></g>
<g><path style="opacity:1" fill="#efd5b3" d="M 390.5,134.5 C 390.742,138.479 391.742,142.146 393.5,145.5C 393.287,152.174 392.954,158.841 392.5,165.5C 385.579,192.303 368.245,204.97 340.5,203.5C 340.178,197.642 340.511,191.975 341.5,186.5C 344.152,186.59 346.485,185.924 348.5,184.5C 358.478,181.362 366.311,175.362 372,166.5C 373.341,163.978 374.174,161.311 374.5,158.5C 376.066,151.492 375.566,144.492 373,137.5C 372.292,136.619 371.458,135.953 370.5,135.5C 367.722,131.611 364.056,128.945 359.5,127.5C 353.317,126.324 346.983,126.324 340.5,127.5C 338.229,122.02 336.563,116.353 335.5,110.5C 355.029,104.838 371.529,109.504 385,124.5C 387.619,127.406 389.453,130.739 390.5,134.5 Z"/></g>
<g><path style="opacity:1" fill="#716454" d="M 148.5,118.5 C 150.978,117.836 153.645,117.503 156.5,117.5C 160.469,117.294 164.135,117.961 167.5,119.5C 161.196,118.74 154.863,118.407 148.5,118.5 Z"/></g>
<g><path style="opacity:1" fill="#f2d8b5" d="M 148.5,118.5 C 154.863,118.407 161.196,118.74 167.5,119.5C 167.833,119.5 168.167,119.5 168.5,119.5C 170.515,120.924 172.848,121.59 175.5,121.5C 179.604,123.725 183.604,126.225 187.5,129C 193.043,134.879 198.877,140.379 205,145.5C 211.517,137.317 219.017,130.15 227.5,124C 229.852,123.76 231.852,122.927 233.5,121.5C 235.898,121.741 237.898,121.074 239.5,119.5C 257.137,115.06 271.97,119.726 284,133.5C 290.536,146.824 291.203,160.491 286,174.5C 280.302,185.513 273.135,195.346 264.5,204C 264.645,204.772 264.978,205.439 265.5,206C 278.882,212.049 289.049,221.549 296,234.5C 298.392,243.4 297.726,252.067 294,260.5C 283.563,278.445 268.73,291.112 249.5,298.5C 247.033,298.755 245.033,299.755 243.5,301.5C 243.167,301.5 242.833,301.5 242.5,301.5C 239.848,301.41 237.515,302.076 235.5,303.5C 233.379,303.325 231.379,303.659 229.5,304.5C 224.248,304.862 219.248,305.862 214.5,307.5C 205.827,307.666 197.16,307.5 188.5,307C 178.103,304.638 167.769,301.971 157.5,299C 140.129,292.303 126.295,281.137 116,265.5C 106.299,247.017 109.132,230.85 124.5,217C 130.721,212.603 137.054,208.437 143.5,204.5C 139.667,199.5 135.833,194.5 132,189.5C 128.899,184.298 126.066,178.965 123.5,173.5C 121.714,168.498 120.381,163.498 119.5,158.5C 118.104,140.608 125.438,127.941 141.5,120.5C 144.152,120.59 146.485,119.924 148.5,118.5 Z"/></g>
<g><path style="opacity:1" fill="#7c6e5d" d="M 148.5,118.5 C 146.485,119.924 144.152,120.59 141.5,120.5C 143.515,119.076 145.848,118.41 148.5,118.5 Z"/></g>
<g><path style="opacity:1" fill="#5d5346" d="M 168.5,119.5 C 171.152,119.41 173.485,120.076 175.5,121.5C 172.848,121.59 170.515,120.924 168.5,119.5 Z"/></g>
<g><path style="opacity:1" fill="#978771" d="M 239.5,119.5 C 237.898,121.074 235.898,121.741 233.5,121.5C 235.102,119.926 237.102,119.259 239.5,119.5 Z"/></g>
<g><path style="opacity:1" fill="#7e715f" d="M 359.5,127.5 C 352.966,127.767 346.632,127.767 340.5,127.5C 346.983,126.324 353.317,126.324 359.5,127.5 Z"/></g>
<g><path style="opacity:1" fill="#968670" d="M 50.5,127.5 C 56.6739,126.45 63.0073,126.45 69.5,127.5C 63.3502,128.018 57.0169,128.018 50.5,127.5 Z"/></g>
<g><path style="opacity:1" fill="#eed5b3" d="M 348.5,176.5 C 346.517,176.843 345.183,176.176 344.5,174.5C 346.253,168.936 347.253,163.103 347.5,157C 347.383,151.072 346.883,145.238 346,139.5C 362.965,134.457 369.965,140.79 367,158.5C 363.612,167.388 357.445,173.388 348.5,176.5 Z"/></g>
<g><path style="opacity:1" fill="#8c7d69" d="M 390.5,134.5 C 392.258,137.854 393.258,141.521 393.5,145.5C 391.742,142.146 390.742,138.479 390.5,134.5 Z"/></g>
<g><path style="opacity:1" fill="#edd4b2" d="M 65.5,174.5 C 63.7354,175.461 61.7354,175.795 59.5,175.5C 52.1777,173.01 47.3444,168.01 45,160.5C 43.5439,154.903 43.2106,149.237 44,143.5C 45.5088,141.29 47.3421,139.457 49.5,138C 55.0888,136.805 60.2555,137.638 65,140.5C 64.713,146.978 64.213,153.478 63.5,160C 63.7156,164.907 64.3822,169.741 65.5,174.5 Z"/></g>
<g><path style="opacity:1" fill="#605648" d="M 370.5,135.5 C 371.458,135.953 372.292,136.619 373,137.5C 375.566,144.492 376.066,151.492 374.5,158.5C 375.38,150.354 374.046,142.688 370.5,135.5 Z"/></g>
<g><path style="opacity:1" fill="#8a7c68" d="M 250.5,153.5 C 247.763,153.401 245.096,153.735 242.5,154.5C 243.492,152.974 244.992,152.307 247,152.5C 248.385,152.514 249.551,152.848 250.5,153.5 Z"/></g>
<g><path style="opacity:1" fill="#090806" d="M 158.5,152.5 C 166.147,152.581 171.314,156.247 174,163.5C 174.667,168.5 174.667,173.5 174,178.5C 171.041,186.23 165.541,189.063 157.5,187C 150.449,179.362 148.616,170.529 152,160.5C 153.946,157.58 156.113,154.913 158.5,152.5 Z"/></g>
<g><path style="opacity:1" fill="#090806" d="M 250.5,153.5 C 261.08,162.953 262.247,173.62 254,185.5C 243.945,191.168 237.945,188.168 236,176.5C 234.939,170.276 235.606,164.276 238,158.5C 239.371,156.959 240.871,155.625 242.5,154.5C 245.096,153.735 247.763,153.401 250.5,153.5 Z"/></g>
<g><path style="opacity:1" fill="#94846f" d="M 393.5,145.5 C 394.877,152.231 394.543,158.898 392.5,165.5C 392.954,158.841 393.287,152.174 393.5,145.5 Z"/></g>
<g><path style="opacity:1" fill="#5d5345" d="M 119.5,158.5 C 120.381,163.498 121.714,168.498 123.5,173.5C 120.177,169.174 118.844,164.174 119.5,158.5 Z"/></g>
<g><path style="opacity:1" fill="#10a4bc" d="M -0.5,165.5 C 2.14959,173.257 5.31626,180.924 9,188.5C 17.3049,204.194 29.8049,214.527 46.5,219.5C 48.8383,221.04 51.5049,221.706 54.5,221.5C 58.7675,221.203 62.9341,221.536 67,222.5C 71.0881,236.017 77.7548,248.017 87,258.5C 87.4828,259.448 87.6495,260.448 87.5,261.5C 45.6358,279.213 16.3025,309.213 -0.5,351.5C -0.5,289.5 -0.5,227.5 -0.5,165.5 Z"/></g>
<g><path style="opacity:1" fill="#7f725f" d="M 65.5,174.5 C 66.0431,174.56 66.3764,174.893 66.5,175.5C 64.0268,176.797 61.6934,176.797 59.5,175.5C 61.7354,175.795 63.7354,175.461 65.5,174.5 Z"/></g>
<g><path style="opacity:1" fill="#675c4d" d="M 344.5,174.5 C 345.183,176.176 346.517,176.843 348.5,176.5C 347.081,177.451 345.415,177.784 343.5,177.5C 343.263,176.209 343.596,175.209 344.5,174.5 Z"/></g>
<g><path style="opacity:1" fill="#736656" d="M 52.5,180.5 C 54.0269,180.427 55.0269,181.094 55.5,182.5C 53.9731,182.573 52.9731,181.906 52.5,180.5 Z"/></g>
<g><path style="opacity:1" fill="#91816d" d="M 348.5,184.5 C 346.485,185.924 344.152,186.59 341.5,186.5C 343.438,184.837 345.772,184.171 348.5,184.5 Z"/></g>
<g><path style="opacity:1" fill="#1fa4bb" d="M 407.5,180.5 C 407.5,237.5 407.5,294.5 407.5,351.5C 401.099,335.371 392.599,320.371 382,306.5C 364.054,287.86 343.888,272.36 321.5,260C 329.824,248.016 336.824,235.349 342.5,222C 347.202,221.828 351.868,221.328 356.5,220.5C 380.134,215.528 397.134,202.195 407.5,180.5 Z"/></g>
<g><path style="opacity:1" fill="#5c5245" d="M 190.5,202.5 C 187.098,202.342 183.764,202.676 180.5,203.5C 180.611,202.883 180.944,202.383 181.5,202C 184.696,201.195 187.696,201.362 190.5,202.5 Z"/></g>
<g><path style="opacity:1" fill="#100e0c" d="M 190.5,202.5 C 196.655,204.137 199.322,208.137 198.5,214.5C 195.12,215.5 191.786,215.167 188.5,213.5C 183.971,212.247 180.638,209.58 178.5,205.5C 178.747,204.287 179.414,203.62 180.5,203.5C 183.764,202.676 187.098,202.342 190.5,202.5 Z"/></g>
<g><path style="opacity:1" fill="#12100e" d="M 215.5,201.5 C 220.162,200.804 224.329,201.804 228,204.5C 228.667,205.5 228.667,206.5 228,207.5C 223.355,212.786 217.521,215.286 210.5,215C 209.103,209.358 210.769,204.858 215.5,201.5 Z"/></g>
<g><path style="opacity:1" fill="#9a8a74" d="M 188.5,213.5 C 191.786,215.167 195.12,215.5 198.5,214.5C 198.03,215.693 197.03,216.36 195.5,216.5C 192.64,216.445 190.307,215.445 188.5,213.5 Z"/></g>
<g><path style="opacity:1" fill="#0a616e" d="M 46.5,219.5 C 49.4282,219.565 52.0948,220.232 54.5,221.5C 51.5049,221.706 48.8383,221.04 46.5,219.5 Z"/></g>
<g><path style="opacity:1" fill="#7f7260" d="M 139.5,244.5 C 136.833,244.833 134.167,245.167 131.5,245.5C 134.04,243.587 136.707,243.254 139.5,244.5 Z"/></g>
<g><path style="opacity:1" fill="#100e0c" d="M 247.5,277.5 C 242.856,278.599 238.522,280.266 234.5,282.5C 232.139,282.674 229.806,283.007 227.5,283.5C 224.572,283.565 221.905,284.232 219.5,285.5C 207.148,285.649 194.815,285.315 182.5,284.5C 177.556,283.346 172.556,282.012 167.5,280.5C 166.486,279.326 165.153,278.66 163.5,278.5C 147.645,273.748 135.312,264.414 126.5,250.5C 127.181,247.819 128.848,246.152 131.5,245.5C 134.167,245.167 136.833,244.833 139.5,244.5C 142.044,245.708 143.378,247.708 143.5,250.5C 135.807,250.701 134.807,253.201 140.5,258C 143.059,259.777 145.726,261.277 148.5,262.5C 148.973,263.906 149.973,264.573 151.5,264.5C 153.854,265.013 155.854,266.179 157.5,268C 158.793,268.49 160.127,268.657 161.5,268.5C 162.287,270.104 163.62,270.771 165.5,270.5C 198.01,280.899 229.343,278.065 259.5,262C 263.6,259.533 267.434,256.699 271,253.5C 270.967,251.522 269.8,250.522 267.5,250.5C 266.194,249.533 265.527,248.199 265.5,246.5C 270.684,242.384 275.517,243.05 280,248.5C 280.496,250.035 280.33,251.535 279.5,253C 276.542,258.292 272.542,262.625 267.5,266C 260.934,270.113 254.267,273.946 247.5,277.5 Z"/></g>
<g><path style="opacity:1" fill="#716555" d="M 265.5,246.5 C 265.527,248.199 266.194,249.533 267.5,250.5C 266.5,250.5 265.5,250.5 264.5,250.5C 264.232,248.901 264.566,247.568 265.5,246.5 Z"/></g>
<g><path style="opacity:1" fill="#847663" d="M 148.5,262.5 C 150.027,262.427 151.027,263.094 151.5,264.5C 149.973,264.573 148.973,263.906 148.5,262.5 Z"/></g>
<g><path style="opacity:1" fill="#867864" d="M 161.5,268.5 C 163.153,268.66 164.486,269.326 165.5,270.5C 163.62,270.771 162.287,270.104 161.5,268.5 Z"/></g>
<g><path style="opacity:1" fill="#692a03" d="M 394.5,411.5 C 393.5,413.167 392.167,414.5 390.5,415.5C 374.833,415.5 359.167,415.5 343.5,415.5C 343.423,403.977 341.923,392.644 339,381.5C 337.035,374.646 332.868,372.812 326.5,376C 325.056,377.126 324.39,378.626 324.5,380.5C 325.774,386.477 326.941,392.477 328,398.5C 328.806,404.084 328.639,409.584 327.5,415C 244.501,415.5 161.501,415.667 78.5,415.5C 78.0265,403.289 79.3599,391.289 82.5,379.5C 82.4302,378.228 82.0968,377.062 81.5,376C 77.1702,373.53 73.3368,374.03 70,377.5C 65.7893,389.808 63.9559,402.475 64.5,415.5C 48.5,415.5 32.5,415.5 16.5,415.5C 15.1667,414.833 14.1667,413.833 13.5,412.5C 13.3334,397.496 13.5001,382.496 14,367.5C 15.5268,359.586 17.8601,351.92 21,344.5C 39.1064,309.069 66.9397,285.235 104.5,273C 138.08,312.085 180.414,326.752 231.5,317C 260.39,310.724 284.056,296.057 302.5,273C 319.606,278.727 335.273,287.394 349.5,299C 385.36,327.922 400.36,365.422 394.5,411.5 Z"/></g>
<g><path style="opacity:1" fill="#a9977f" d="M 247.5,277.5 C 247.389,278.117 247.056,278.617 246.5,279C 242.553,280.484 238.553,281.65 234.5,282.5C 238.522,280.266 242.856,278.599 247.5,277.5 Z"/></g>
<g><path style="opacity:1" fill="#726656" d="M 163.5,278.5 C 165.153,278.66 166.486,279.326 167.5,280.5C 165.62,280.771 164.287,280.104 163.5,278.5 Z"/></g>
<g><path style="opacity:1" fill="#978772" d="M 227.5,283.5 C 225.22,285.223 222.553,285.889 219.5,285.5C 221.905,284.232 224.572,283.565 227.5,283.5 Z"/></g>
<g><path style="opacity:1" fill="#8c7d69" d="M 182.5,284.5 C 194.815,285.315 207.148,285.649 219.5,285.5C 214.511,286.166 209.344,286.499 204,286.5C 196.598,286.706 189.432,286.039 182.5,284.5 Z"/></g>
<g><path style="opacity:1" fill="#52493d" d="M 249.5,298.5 C 247.967,300.245 245.967,301.245 243.5,301.5C 245.033,299.755 247.033,298.755 249.5,298.5 Z"/></g>
<g><path style="opacity:1" fill="#4e463b" d="M 242.5,301.5 C 240.485,302.924 238.152,303.59 235.5,303.5C 237.515,302.076 239.848,301.41 242.5,301.5 Z"/></g>
<g><path style="opacity:1" fill="#423b32" d="M 229.5,304.5 C 224.911,306.875 219.911,307.875 214.5,307.5C 219.248,305.862 224.248,304.862 229.5,304.5 Z"/></g>
<g><path style="opacity:0.994" fill="#060200" d="M 390.5,415.5 C 384.505,420.166 377.838,423.499 370.5,425.5C 258.833,425.5 147.167,425.5 35.5,425.5C 28.4818,423.491 22.1485,420.157 16.5,415.5C 32.5,415.5 48.5,415.5 64.5,415.5C 63.9559,402.475 65.7893,389.808 70,377.5C 73.3368,374.03 77.1702,373.53 81.5,376C 82.0968,377.062 82.4302,378.228 82.5,379.5C 79.3599,391.289 78.0265,403.289 78.5,415.5C 161.501,415.667 244.501,415.5 327.5,415C 328.639,409.584 328.806,404.084 328,398.5C 326.941,392.477 325.774,386.477 324.5,380.5C 324.39,378.626 325.056,377.126 326.5,376C 332.868,372.812 337.035,374.646 339,381.5C 341.923,392.644 343.423,403.977 343.5,415.5C 359.167,415.5 374.833,415.5 390.5,415.5 Z"/></g>
</svg>
